<mxfile host="65bd71144e">
    <diagram id="mV_eAABYKltjs_lONSdR" name="ページ1">
        <mxGraphModel dx="722" dy="367" grid="1" gridSize="10" guides="1" tooltips="1" connect="1" arrows="1" fold="1" page="1" pageScale="1" pageWidth="827" pageHeight="1169" math="0" shadow="0">
            <root>
                <mxCell id="0"/>
                <mxCell id="1" parent="0"/>
                <mxCell id="2" value="Application" style="html=1;" vertex="1" parent="1">
                    <mxGeometry x="80" y="80" width="110" height="50" as="geometry"/>
                </mxCell>
                <mxCell id="3" value="route" style="html=1;" vertex="1" parent="1">
                    <mxGeometry x="80" y="200" width="110" height="50" as="geometry"/>
                </mxCell>
                <mxCell id="4" value="AbstractController" style="html=1;" vertex="1" parent="1">
                    <mxGeometry x="280" y="80" width="110" height="50" as="geometry"/>
                </mxCell>
                <mxCell id="5" value="HelloController" style="html=1;" vertex="1" parent="1">
                    <mxGeometry x="280" y="200" width="110" height="50" as="geometry"/>
                </mxCell>
                <mxCell id="6" value="Extends" style="endArrow=block;endSize=16;endFill=0;html=1;exitX=0.5;exitY=0;exitDx=0;exitDy=0;entryX=0.5;entryY=1;entryDx=0;entryDy=0;" edge="1" parent="1" source="5" target="4">
                    <mxGeometry width="160" relative="1" as="geometry">
                        <mxPoint x="260" y="100" as="sourcePoint"/>
                        <mxPoint x="420" y="100" as="targetPoint"/>
                    </mxGeometry>
                </mxCell>
                <mxCell id="9" value="" style="endArrow=open;endFill=1;endSize=12;html=1;exitX=1;exitY=0.5;exitDx=0;exitDy=0;entryX=0;entryY=0.5;entryDx=0;entryDy=0;" edge="1" parent="1" source="2" target="4">
                    <mxGeometry width="160" relative="1" as="geometry">
                        <mxPoint x="260" y="100" as="sourcePoint"/>
                        <mxPoint x="310" y="110" as="targetPoint"/>
                    </mxGeometry>
                </mxCell>
                <mxCell id="10" value="" style="endArrow=open;endFill=1;endSize=12;html=1;exitX=0.5;exitY=1;exitDx=0;exitDy=0;entryX=0.5;entryY=0;entryDx=0;entryDy=0;" edge="1" parent="1" source="2" target="3">
                    <mxGeometry width="160" relative="1" as="geometry">
                        <mxPoint x="200.0000000000001" y="115" as="sourcePoint"/>
                        <mxPoint x="289.9999999999999" y="115" as="targetPoint"/>
                    </mxGeometry>
                </mxCell>
                <mxCell id="11" value="" style="endArrow=open;endFill=1;endSize=12;html=1;" edge="1" parent="1" source="3" target="4">
                    <mxGeometry width="160" relative="1" as="geometry">
                        <mxPoint x="145.0000000000001" y="140" as="sourcePoint"/>
                        <mxPoint x="145.0000000000001" y="210" as="targetPoint"/>
                    </mxGeometry>
                </mxCell>
                <mxCell id="12" value="" style="endArrow=open;endFill=1;endSize=12;html=1;" edge="1" parent="1" source="3" target="5">
                    <mxGeometry width="160" relative="1" as="geometry">
                        <mxPoint x="186.66666666666674" y="210" as="sourcePoint"/>
                        <mxPoint x="303.33333333333326" y="140" as="targetPoint"/>
                    </mxGeometry>
                </mxCell>
            </root>
        </mxGraphModel>
    </diagram>
</mxfile>